<svg xmlns="http://www.w3.org/2000/svg" xmlns:xlink="http://www.w3.org/1999/xlink" width="2000" zoomAndPan="magnify" viewBox="0 0 1500 1499.999933" height="2000" preserveAspectRatio="xMidYMid meet" version="1.0"><defs><g/></defs><rect x="-150" width="1800" fill="#ffffff" y="-149.999993" height="1799.99992" fill-opacity="1"/><rect x="-150" width="1800" fill="#000000" y="-149.999993" height="1799.99992" fill-opacity="1"/><g fill="#ffffff" fill-opacity="1"><g transform="translate(155.414082, 1376.228141)"><g><path d="M 733.609375 -1182.015625 L 733.609375 -129.140625 C 734.804688 -98.054688 746.460938 -71.75 768.578125 -50.21875 C 790.703125 -28.695312 817.3125 -17.9375 848.40625 -17.9375 L 869.921875 -17.9375 L 871.71875 0 L 326.453125 0 L 326.453125 -17.9375 L 349.765625 -17.9375 C 379.660156 -17.9375 405.664062 -28.695312 427.78125 -50.21875 C 449.90625 -71.75 462.164062 -97.457031 464.5625 -127.34375 L 464.5625 -1182.015625 L 222.40625 -1182.015625 C 167.40625 -1180.816406 123.757812 -1163.476562 91.46875 -1130 C 59.1875 -1096.519531 43.046875 -1052.875 43.046875 -999.0625 L 43.046875 -977.546875 L 25.109375 -977.546875 L 25.109375 -1289.640625 C 74.140625 -1269.304688 144.691406 -1258.546875 236.765625 -1257.359375 L 959.609375 -1257.359375 C 996.671875 -1257.359375 1037.023438 -1260.941406 1080.671875 -1268.109375 C 1124.316406 -1275.285156 1154.507812 -1282.460938 1171.25 -1289.640625 L 1171.25 -977.546875 L 1153.328125 -977.546875 L 1153.328125 -999.0625 C 1153.328125 -1073.195312 1125.222656 -1125.8125 1069.015625 -1156.90625 C 1042.710938 -1172.445312 1011.023438 -1180.816406 973.953125 -1182.015625 Z M 733.609375 -1182.015625 "/></g></g></g></svg>